<svg width="196" height="24" viewBox="0 0 196 24" fill="none" xmlns="http://www.w3.org/2000/svg">
<rect x="144" y="1.35188" width="38" height="17.3333" rx="8.66667" fill="#B0FF61"/>
<path d="M151.304 14.0185V5.61854H154.412C155.984 5.61854 157.004 6.39854 157.004 7.77854C157.004 8.55854 156.464 9.18254 155.924 9.42254C156.752 9.72254 157.388 10.4065 157.388 11.5585C157.388 13.0825 156.308 14.0185 154.568 14.0185H151.304ZM152.54 12.9145H154.4C155.576 12.9145 156.152 12.4225 156.152 11.5105C156.152 10.5985 155.576 10.1065 154.4 10.1065H152.54V12.9145ZM152.54 9.01454H154.352C155.288 9.01454 155.792 8.61854 155.792 7.83854C155.792 7.07054 155.288 6.66254 154.34 6.66254H152.54V9.01454ZM161.359 14.1145C159.487 14.1145 158.323 12.6385 158.323 10.9585C158.323 9.26654 159.379 7.87454 161.239 7.87454C163.111 7.87454 164.107 9.20654 164.107 10.7425C164.107 10.8985 164.095 11.0905 164.083 11.1985H159.463C159.559 12.3385 160.303 13.1185 161.359 13.1185C162.247 13.1185 162.823 12.7345 162.991 12.0505H164.155C163.939 13.2985 162.847 14.1145 161.359 14.1145ZM159.499 10.3465H162.931C162.859 9.42254 162.235 8.81054 161.239 8.81054C160.291 8.81054 159.679 9.33854 159.499 10.3465ZM165.88 6.07454H167.044V7.97054H168.832V8.97854H167.044V12.0025C167.044 12.6505 167.404 13.0105 167.98 13.0105H168.832V14.0185H167.896C166.672 14.0185 165.88 13.2745 165.88 12.0385V8.97854H164.644V7.97054H165.88V6.07454ZM171.757 14.1145C170.521 14.1145 169.705 13.3705 169.705 12.2905C169.705 11.1265 170.629 10.4065 172.057 10.4065H173.317C173.593 10.4065 173.725 10.2625 173.725 10.0465C173.725 9.31454 173.197 8.81054 172.261 8.81054C171.421 8.81054 170.809 9.33854 170.773 9.95054H169.693C169.789 8.76254 170.869 7.87454 172.297 7.87454C173.857 7.87454 174.889 8.77454 174.889 10.1185V14.0185H173.725V13.0345C173.437 13.6945 172.669 14.1145 171.757 14.1145ZM170.857 12.2665C170.857 12.8185 171.313 13.1905 171.985 13.1905C173.089 13.1905 173.725 12.4825 173.725 11.3665V11.2225H172.165C171.373 11.2225 170.857 11.6305 170.857 12.2665Z" fill="black"/>
<path fill-rule="evenodd" clip-rule="evenodd" d="M106.718 7.26388V23.3919H110.654V7.26388H106.718ZM106.59 0.351875V4.73588H110.814V0.351875H106.59ZM131.812 23.3919V0.351875H135.749V23.3919H131.812ZM119.296 23.6481C116.128 23.6481 113.952 21.6001 113.952 18.8161C113.952 15.6801 116.352 13.7281 120 13.7281H122.976C123.744 13.7281 124.128 13.2801 124.128 12.6401C124.128 11.0721 122.944 9.95213 120.864 9.95213C118.784 9.95213 117.536 11.2641 117.472 12.7041H113.92C114.144 9.50413 116.864 7.00813 121.024 7.00813C125.152 7.00813 128.032 9.37613 128.032 13.0241V23.3921H124.128V20.9921C123.488 22.5921 121.6 23.6481 119.296 23.6481ZM117.76 18.6561C117.76 19.9041 118.752 20.7361 120.224 20.7361C122.688 20.7361 124.128 19.0081 124.128 16.5761V16.3201H120.512C118.848 16.3201 117.76 17.2481 117.76 18.6561ZM101.83 10.56C99.3022 10.56 98.3422 12.704 98.3422 15.776V23.392H94.4062V7.26398H98.3422V10.112C99.1422 8.06398 100.39 7.26398 102.47 7.26398H104.358V10.56H101.83ZM83.9637 4.63952V23.3915H88.1877V4.63952H104.18V0.991524H73.1797V4.63952H83.9637Z" fill="#00A5C6"/>
<path fill-rule="evenodd" clip-rule="evenodd" d="M63.1016 23.3919V0.351875H67.0696V13.1199L73.2136 7.26388H78.2056L71.6456 13.5679L78.7496 23.3919H74.0136L68.9576 16.1919L67.0696 18.0159V23.3919H63.1016ZM58.2131 10.56C55.6851 10.56 54.7251 12.704 54.7251 15.776V23.392H50.7891V7.26398H54.7251V10.112C55.5251 8.06398 56.7731 7.26398 58.8531 7.26398H60.7411V10.56H58.2131ZM30.9219 15.3281C30.9219 20.1281 34.4419 23.6481 39.3699 23.6481C44.2659 23.6481 47.7859 20.1281 47.7859 15.3281C47.7859 10.5281 44.2659 7.00813 39.3699 7.00813C34.4419 7.00813 30.9219 10.5281 30.9219 15.3281ZM39.3699 20.2561C36.6819 20.2561 34.8899 18.2401 34.8899 15.3281C34.8899 12.4161 36.6819 10.4001 39.3699 10.4001C42.0259 10.4001 43.8179 12.4161 43.8179 15.3281C43.8179 18.2401 42.0259 20.2561 39.3699 20.2561ZM6.72 23.3915L0 0.991524H4.288L8.928 17.1515L13.824 0.991524H17.408L22.304 17.1515L26.976 0.991524H27.0371V0.986641H60.8418V4.6302H30.1508L24.576 23.3915H20.384L15.616 7.55152L10.848 23.3915H6.72Z" fill="#005741"/>
</svg>
