<svg width="412" height="266" viewBox="0 0 412 266" fill="none" xmlns="http://www.w3.org/2000/svg">
<ellipse cx="199.05" cy="55.9541" rx="55.4497" ry="55.4496" transform="rotate(-180 199.05 55.9541)" fill="#005741"/>
<path d="M213.116 67.9283V75.2435H182.939C183.355 70.429 184.909 67.0415 190.281 62.2783L213.116 42.7974V59.8922H221.336V28.4417H174.595V44.1187H182.815V36.6618H207.647L184.924 56.0552L184.869 56.1065C175.346 64.5377 174.589 71.3431 174.589 79.3611V83.4696H221.339V67.9344H213.119L213.116 67.9283Z" fill="#B0FF61"/>
<path d="M85.5 85.2901C85.5 78.102 91.3271 72.2749 98.5152 72.2749H312.526V228.468H98.5152C91.3271 228.468 85.5 222.641 85.5 215.452V85.2901Z" fill="#00BC8D"/>
<rect x="312.527" y="122.256" width="12.9729" height="56.2294" fill="#A9ACB0"/>
<path d="M312.525 122.256V178.486H221.757C214.569 178.486 208.742 172.658 208.742 165.47V135.271C208.742 128.083 214.569 122.256 221.757 122.256H312.525Z" fill="white"/>
<ellipse cx="241.175" cy="150.371" rx="12.9729" ry="12.4954" fill="#00BC8D"/>
<rect x="69.6987" y="12.115" width="23.4955" height="7.04867" rx="2.01199" transform="rotate(90 69.6987 12.115)" fill="#FA5628"/>
<rect x="77.9268" y="27.3931" width="23.4956" height="7.04866" rx="2.01199" transform="rotate(-180 77.9268 27.3931)" fill="#FA5628"/>
<path fill-rule="evenodd" clip-rule="evenodd" d="M27.3897 86.767C27.9154 87.6431 28.3187 88.6009 28.5759 89.617L35.2353 86.8586L34.054 84.0066L27.3897 86.767ZM28.7847 90.659C28.8614 91.1746 28.9012 91.7022 28.9012 92.2391C28.9012 92.7506 28.8651 93.2537 28.7954 93.746L36 93.746V90.659L28.7847 90.659ZM28.5741 94.8687C28.3161 95.8845 27.9121 96.8421 27.3858 97.7178L34.0527 100.479L35.234 97.6273L28.5741 94.8687ZM26.7847 98.6121C26.1654 99.44 25.4284 100.175 24.5986 100.792L29.7098 105.903L31.8926 103.72L26.7847 98.6121ZM23.7067 101.388C22.8298 101.912 21.8712 102.313 20.8546 102.569L23.6097 109.22L26.4617 108.039L23.7067 101.388ZM19.7908 102.779C19.2881 102.851 18.774 102.889 18.2512 102.889C17.7256 102.889 17.209 102.851 16.7039 102.778V109.986H19.7908V102.779ZM15.6276 102.564C14.6116 102.306 13.6538 101.903 12.7778 101.377L10.0291 108.013L12.881 109.194L15.6276 102.564ZM11.8782 100.773C11.0502 100.153 10.3155 99.4164 9.69859 98.5866L4.60863 103.677L6.79143 105.859L11.8782 100.773ZM9.09715 97.6854C8.574 96.8079 8.17342 95.849 7.91903 94.8321L1.25623 97.5919L2.43756 100.444L9.09715 97.6854ZM7.70693 93.746C7.63722 93.2537 7.60116 92.7506 7.60116 92.2391C7.60116 91.7022 7.64089 91.1746 7.71757 90.659L0.5 90.659V93.746L7.70693 93.746ZM7.91717 89.6536C8.17083 88.6365 8.57072 87.6772 9.09322 86.7994L2.43628 84.042L1.25495 86.894L7.91717 89.6536ZM9.69857 85.8917C10.3154 85.0618 11.0502 84.3249 11.8781 83.7056L6.79031 78.6178L4.6075 80.8006L9.69857 85.8917ZM12.7884 83.095C13.6649 82.5702 14.6232 82.1679 15.6395 81.9117L12.8765 75.241L10.0245 76.4223L12.7884 83.095ZM16.7039 81.7007C17.209 81.6272 17.7256 81.5891 18.2512 81.5891C18.774 81.5891 19.2881 81.6268 19.7908 81.6996V74.486H16.7039V81.7007ZM20.8427 81.9066L23.6143 75.2153L26.4663 76.3966L23.6962 83.0843C22.8187 82.5613 21.8596 82.1609 20.8427 81.9066ZM24.5986 83.6865L29.7109 78.5742L31.8937 80.757L26.7847 85.8661C26.1654 85.0382 25.4284 84.3034 24.5986 83.6865Z" fill="#00A5C6"/>
<rect width="17.3443" height="17.3443" rx="4.02398" transform="matrix(0.707107 0.707106 -0.707107 0.707106 399.235 155.329)" fill="#FA5628"/>
<path fill-rule="evenodd" clip-rule="evenodd" d="M328.289 264.781L331.513 256.999L323.714 260.229L323.001 258.509L330.813 255.273L323 252.036L323.713 250.316L331.544 253.56L328.292 245.709L330.013 244.997L333.249 252.808L336.485 244.995L338.205 245.708L334.954 253.558L342.787 250.313L343.5 252.033L335.68 255.273L343.499 258.511L342.786 260.232L334.985 257.001L338.209 264.783L336.488 265.496L333.249 257.675L330.01 265.494L328.289 264.781Z" fill="#00DDA5"/>
<path d="M64.8225 177.682L100.414 200.602L62.7693 219.965L64.8225 177.682Z" fill="#B0FF61"/>
</svg>
